<svg width="100" height="100" viewBox="0 0 100 100" fill="none" xmlns="http://www.w3.org/2000/svg">
<g clip-path="url(#clip0_2_2)">
<path fill-rule="evenodd" clip-rule="evenodd" d="M90.5 67.5C90.5 87.3823 73.9574 96 48 96C29.8002 96 17.0674 90.3389 9.49999 82C1.89083 73.6151 0.499965 62.5 0 53C0 43 0.474082 37.601 3.00003 36.5C4.4045 36.3245 6.86686 37.4434 10.2251 38.9694C16.4313 41.7895 25.6971 46 37 46C40.3277 46 45 44.5 46.5 41C41.5 37.5 38.5 27.5 41 19C45 3.5 60.4914 3.91372 62.5 4C65.5 4 70.684 4.07003 76 8.5C78.3975 10.4979 79.588 12.2346 80.6788 13.8259C80.953 14.2258 81.2208 14.6166 81.5 15C82.0162 15.709 82.5276 16.5463 83.0608 17.4192L83.0609 17.4193C84.5263 19.8182 86.156 22.4862 88.5 23.5C90.6354 24.4236 93.2131 24.6504 95.3865 24.8416C97.9816 25.0699 100 25.2475 100 26.5C100 26.5688 100 26.6464 100.001 26.7317C100.008 27.8867 100.023 30.4486 99 31.5C97.8745 32.6563 95.3346 33.8445 93.5 34.5C91.0333 35.3813 88.1031 36.193 85.5 36.5C84.7587 36.5874 84.044 36.6009 83.3741 36.6135C82.266 36.6343 81.2804 36.6528 80.5 37C77.5 39.5 76.5 43.5 77 44C86.5 53 90.5 58.2334 90.5 67.5ZM75 21C75 23.2091 73.433 25 71.5 25C69.567 25 68 23.2091 68 21C68 18.7909 69.567 17 71.5 17C73.433 17 75 18.7909 75 21ZM48.9023 86.148C49.1796 86.4253 49.4916 86.564 49.8383 86.564C50.2196 86.564 50.5316 86.4253 50.7743 86.148C51.017 85.9053 51.1383 85.6107 51.1383 85.264V81.468C53.5996 81.3293 55.5583 80.896 57.0143 80.168C58.4703 79.4053 59.5103 78.4693 60.1343 77.36C60.793 76.216 61.1223 75.0373 61.1223 73.824C61.1223 72.6107 60.8276 71.4667 60.2383 70.392C59.6836 69.3173 58.6783 68.3467 57.2223 67.48C55.801 66.5787 53.773 65.8507 51.1383 65.296V55.52C52.1436 55.5893 53.0623 55.728 53.8943 55.936C54.7263 56.1093 55.6796 56.3867 56.7543 56.768C57.2743 56.9413 57.6036 57.028 57.7423 57.028C58.1236 57.028 58.4356 56.9067 58.6783 56.664C58.9556 56.3867 59.0943 56.092 59.0943 55.78C59.0943 55.5027 59.0076 55.2427 58.8343 55C58.6956 54.7573 58.4876 54.584 58.2103 54.48C57.0316 54.0987 55.905 53.7693 54.8303 53.492C53.7903 53.2147 52.5596 53.024 51.1383 52.92V49.384C51.1383 49.0027 51.017 48.6907 50.7743 48.448C50.5316 48.2053 50.2196 48.084 49.8383 48.084C49.4916 48.084 49.1796 48.2053 48.9023 48.448C48.6596 48.6907 48.5383 49.0027 48.5383 49.384V52.868C46.493 52.9027 44.7943 53.2667 43.4423 53.96C42.0903 54.6187 41.085 55.468 40.4263 56.508C39.7676 57.5133 39.4383 58.536 39.4383 59.576C39.4383 60.2693 39.525 60.9973 39.6983 61.76C39.9063 62.488 40.305 63.216 40.8943 63.944C41.4836 64.6373 42.385 65.296 43.5983 65.92C44.8116 66.544 46.4583 67.064 48.5383 67.48V78.816C47.4636 78.7467 46.3543 78.608 45.2103 78.4C44.101 78.1573 43.1476 77.8627 42.3503 77.516C41.5876 77.1693 41.033 76.944 40.6863 76.84C40.3743 76.7013 40.149 76.632 40.0103 76.632C39.6636 76.632 39.3516 76.7533 39.0743 76.996C38.797 77.204 38.6583 77.4987 38.6583 77.88C38.6583 78.504 38.901 78.92 39.3863 79.128C42.2983 80.5147 45.349 81.2773 48.5383 81.416V85.264C48.5383 85.6107 48.6596 85.9053 48.9023 86.148ZM43.3903 62.54C42.489 61.604 42.0383 60.616 42.0383 59.576C42.0383 58.432 42.6623 57.4787 43.9103 56.716C45.1583 55.9187 46.701 55.5027 48.5383 55.468V64.776C46.0076 64.1867 44.2916 63.4413 43.3903 62.54ZM56.7543 70.34C57.933 71.276 58.5223 72.4373 58.5223 73.824C58.5223 75.1413 57.881 76.268 56.5983 77.204C55.3156 78.14 53.4956 78.6773 51.1383 78.816V68C53.7036 68.5893 55.5756 69.3693 56.7543 70.34Z" fill="black"/>
</g>
<defs>
<clipPath id="clip0_2_2">
<rect width="100" height="100" fill="white"/>
</clipPath>
</defs>
</svg>
