<svg id="svg" xmlns="http://www.w3.org/2000/svg" xmlns:xlink="http://www.w3.org/1999/xlink" width="400" height="400" viewBox="0, 0, 400,400" version="1.1"><g id="svgg"><path id="path0" d="M240.625 16.782 C 240.625 17.245,238.287 17.513,238.020 17.081 C 237.887 16.866,237.677 16.901,237.514 17.164 C 237.335 17.455,235.829 17.620,233.266 17.629 C 231.083 17.636,229.297 17.765,229.297 17.914 C 229.297 18.063,228.571 18.115,227.683 18.031 C 226.646 17.932,226.157 18.020,226.316 18.277 C 226.468 18.522,226.253 18.596,225.764 18.468 C 225.261 18.337,224.775 18.518,224.455 18.956 C 224.086 19.460,223.632 19.591,222.813 19.429 C 221.497 19.169,219.458 19.487,219.719 19.910 C 219.818 20.069,219.438 20.112,218.875 20.004 C 218.106 19.857,217.930 19.934,218.166 20.316 C 218.374 20.652,218.327 20.729,218.026 20.543 C 217.776 20.389,217.291 20.544,216.948 20.887 C 216.584 21.251,216.015 21.413,215.584 21.276 C 215.177 21.147,214.844 21.212,214.844 21.421 C 214.844 21.631,214.492 21.710,214.063 21.598 C 213.633 21.485,213.281 21.573,213.281 21.793 C 213.281 22.013,212.902 22.093,212.439 21.972 C 211.866 21.822,211.685 21.895,211.873 22.200 C 212.053 22.490,211.937 22.565,211.544 22.415 C 211.210 22.287,210.938 22.377,210.938 22.614 C 210.938 22.852,210.806 23.026,210.645 23.001 C 209.797 22.867,208.965 23.091,209.157 23.401 C 209.278 23.596,208.997 23.656,208.533 23.535 C 207.901 23.369,207.770 23.444,208.011 23.833 C 208.244 24.210,208.154 24.283,207.681 24.102 C 207.244 23.934,207.031 24.055,207.031 24.468 C 207.031 24.855,206.813 25.000,206.445 24.859 C 206.123 24.735,205.859 24.788,205.859 24.976 C 205.859 25.164,205.524 25.230,205.114 25.123 C 204.678 25.009,204.043 25.253,203.584 25.713 C 203.153 26.144,202.719 26.417,202.620 26.318 C 202.226 25.924,199.683 27.473,199.880 27.986 C 200.068 28.476,199.405 28.700,198.193 28.556 C 197.952 28.527,197.464 28.946,197.110 29.486 C 196.716 30.087,196.100 30.469,195.522 30.469 C 195.002 30.469,194.452 30.672,194.299 30.920 C 194.114 31.218,194.193 31.264,194.531 31.055 C 194.872 30.844,194.948 30.891,194.760 31.196 C 194.604 31.448,194.314 31.552,194.114 31.429 C 193.623 31.126,189.050 34.678,189.166 35.272 C 189.217 35.531,188.956 35.692,188.586 35.630 C 188.217 35.569,187.692 35.876,187.418 36.314 C 187.145 36.751,186.749 37.109,186.538 37.109 C 185.954 37.109,181.641 41.505,181.641 42.101 C 181.641 42.389,181.456 42.510,181.230 42.370 C 181.000 42.229,180.621 42.639,180.372 43.298 C 180.127 43.948,179.586 44.569,179.170 44.678 C 178.681 44.805,178.496 45.089,178.646 45.480 C 178.774 45.812,178.753 46.043,178.599 45.991 C 178.446 45.940,178.320 46.027,178.320 46.184 C 178.320 46.341,177.925 46.746,177.441 47.085 C 176.958 47.424,176.563 47.935,176.563 48.223 C 176.563 48.510,176.281 48.853,175.936 48.985 C 175.581 49.121,175.406 49.476,175.531 49.803 C 175.655 50.127,175.554 50.340,175.301 50.288 C 175.052 50.237,174.749 50.723,174.627 51.367 C 174.506 52.012,174.232 52.534,174.020 52.528 C 173.807 52.521,173.689 52.759,173.757 53.055 C 173.826 53.355,173.696 53.480,173.464 53.336 C 173.234 53.195,173.047 53.353,173.047 53.688 C 173.047 54.023,172.861 54.297,172.633 54.297 C 172.406 54.297,172.328 54.473,172.461 54.688 C 172.594 54.902,172.538 55.078,172.336 55.078 C 171.947 55.078,170.844 57.416,171.001 57.910 C 171.052 58.071,170.914 58.203,170.693 58.203 C 170.261 58.203,169.477 59.915,169.390 61.050 C 169.360 61.434,169.092 61.899,168.794 62.083 C 168.495 62.267,168.232 62.946,168.208 63.592 C 168.184 64.238,168.013 64.674,167.829 64.561 C 167.645 64.448,167.607 64.710,167.745 65.144 C 167.899 65.631,167.755 66.173,167.368 66.560 C 167.023 66.905,166.885 67.190,167.062 67.193 C 167.238 67.197,167.133 67.358,166.828 67.551 C 166.522 67.744,166.259 68.532,166.242 69.302 C 166.225 70.071,166.103 70.701,165.972 70.702 C 165.841 70.703,165.817 71.140,165.919 71.675 C 166.046 72.338,165.901 72.725,165.463 72.893 C 165.028 73.060,164.901 73.393,165.069 73.923 C 165.235 74.444,165.173 74.617,164.886 74.440 C 164.428 74.157,164.344 74.742,164.113 79.808 C 164.078 80.574,163.915 80.817,163.574 80.612 C 163.238 80.410,163.252 80.523,163.618 80.975 C 164.067 81.529,164.067 81.663,163.618 81.836 C 163.040 82.058,162.725 104.688,163.300 104.688 C 163.809 104.688,163.981 106.174,163.529 106.665 C 163.195 107.028,163.206 107.078,163.574 106.870 C 164.094 106.577,164.250 108.133,164.074 111.864 C 164.017 113.061,164.129 113.677,164.377 113.524 C 164.627 113.369,164.694 113.847,164.560 114.844 C 164.416 115.914,164.498 116.406,164.819 116.406 C 165.109 116.406,165.193 116.703,165.039 117.188 C 164.886 117.668,164.969 117.969,165.254 117.969 C 165.520 117.969,165.632 118.292,165.517 118.731 C 165.407 119.151,165.498 119.554,165.718 119.627 C 165.939 119.701,166.154 120.604,166.197 121.633 C 166.240 122.667,166.502 123.646,166.781 123.819 C 167.072 123.998,167.158 124.342,166.982 124.626 C 166.794 124.930,166.834 125.023,167.086 124.867 C 167.554 124.578,168.087 125.665,167.747 126.215 C 167.449 126.697,168.321 129.297,168.780 129.297 C 168.978 129.297,169.112 129.429,169.077 129.590 C 168.934 130.240,169.638 132.012,169.959 131.813 C 170.149 131.696,170.188 131.902,170.046 132.270 C 169.873 132.722,169.937 132.849,170.242 132.661 C 170.537 132.478,170.614 132.591,170.462 132.988 C 170.307 133.390,170.454 133.594,170.898 133.594 C 171.333 133.594,171.489 133.799,171.343 134.180 C 171.038 134.974,171.469 135.993,171.976 135.680 C 172.233 135.521,172.268 135.617,172.071 135.936 C 171.872 136.259,172.029 136.646,172.499 136.990 C 172.908 137.289,173.180 137.621,173.104 137.729 C 172.727 138.262,173.942 140.166,174.518 139.945 C 174.989 139.764,175.071 139.876,174.864 140.417 C 174.551 141.232,175.616 143.117,176.189 142.763 C 176.394 142.636,176.563 142.982,176.563 143.532 C 176.563 144.081,176.899 144.868,177.311 145.280 C 177.723 145.692,177.957 146.131,177.832 146.257 C 177.707 146.382,177.820 146.484,178.083 146.484 C 178.346 146.484,178.457 146.654,178.329 146.861 C 178.201 147.068,178.440 147.580,178.859 148.000 C 179.279 148.420,179.520 148.866,179.395 148.991 C 179.269 149.116,179.470 149.219,179.841 149.219 C 180.212 149.219,180.408 149.391,180.278 149.601 C 179.931 150.164,180.791 151.563,181.485 151.563 C 181.901 151.562,182.010 151.795,181.842 152.324 C 181.688 152.810,181.879 153.363,182.369 153.854 C 182.792 154.276,183.035 154.725,182.910 154.850 C 182.785 154.976,182.953 155.078,183.285 155.078 C 183.677 155.078,183.887 155.442,183.887 156.122 C 183.887 156.696,184.170 157.373,184.515 157.625 C 184.861 157.878,185.030 158.200,184.890 158.339 C 184.750 158.479,184.840 158.594,185.091 158.594 C 185.342 158.594,185.513 158.726,185.472 158.887 C 185.330 159.446,186.003 161.725,186.262 161.564 C 186.406 161.475,186.523 162.967,186.523 164.880 C 186.523 166.793,186.371 168.358,186.185 168.359 C 185.999 168.359,185.938 168.711,186.051 169.141 C 186.169 169.593,186.095 169.824,185.875 169.688 C 185.666 169.559,185.527 169.690,185.567 169.980 C 185.696 170.917,185.554 171.622,185.290 171.358 C 184.869 170.937,184.012 171.884,184.251 172.505 C 184.387 172.860,184.266 173.035,183.935 172.965 C 183.640 172.903,183.437 173.055,183.484 173.303 C 183.531 173.551,183.302 173.857,182.975 173.982 C 182.577 174.135,182.474 174.051,182.664 173.726 C 182.820 173.460,182.569 173.573,182.108 173.978 C 181.646 174.383,181.379 174.893,181.515 175.113 C 181.661 175.348,181.567 175.391,181.286 175.217 C 181.024 175.056,180.514 175.184,180.151 175.502 C 179.789 175.820,178.745 176.456,177.832 176.916 C 176.919 177.375,176.172 177.845,176.172 177.961 C 176.172 178.076,176.375 178.046,176.623 177.892 C 176.911 177.714,176.967 177.786,176.779 178.091 C 176.616 178.354,176.238 178.475,175.937 178.359 C 175.170 178.065,174.171 178.513,174.480 179.014 C 174.642 179.274,174.495 179.337,174.088 179.180 C 173.264 178.864,172.194 179.256,172.506 179.760 C 172.636 179.970,172.415 180.107,172.015 180.065 C 170.639 179.919,169.876 180.079,170.114 180.463 C 170.262 180.703,169.882 180.754,169.099 180.597 C 168.297 180.437,167.935 180.489,168.092 180.742 C 168.241 180.984,167.961 181.066,167.371 180.953 C 166.788 180.841,166.406 180.950,166.406 181.228 C 166.406 181.480,166.230 181.578,166.016 181.445 C 165.801 181.313,165.625 181.360,165.625 181.551 C 165.625 181.742,164.705 181.919,163.581 181.945 C 162.457 181.970,161.481 182.158,161.413 182.362 C 161.345 182.566,160.595 182.640,159.746 182.526 C 158.667 182.381,158.203 182.465,158.203 182.803 C 158.203 183.121,157.877 183.206,157.259 183.051 C 156.669 182.903,156.254 182.997,156.152 183.301 C 156.028 183.671,154.273 183.771,148.893 183.712 C 144.637 183.666,141.797 183.784,141.797 184.005 C 141.797 184.487,140.349 184.486,140.051 184.004 C 139.918 183.788,137.024 183.666,133.128 183.711 C 128.001 183.771,126.394 183.673,126.267 183.292 C 126.147 182.932,125.573 182.865,124.183 183.049 C 122.761 183.238,122.266 183.176,122.266 182.808 C 122.266 182.441,121.708 182.370,120.111 182.535 C 118.630 182.688,118.038 182.627,118.215 182.339 C 118.392 182.054,117.835 181.982,116.463 182.114 C 115.358 182.220,114.453 182.188,114.453 182.042 C 114.453 181.895,113.926 181.853,113.281 181.948 C 112.525 182.059,112.109 181.951,112.109 181.643 C 112.109 181.380,111.847 181.267,111.523 181.391 C 111.201 181.515,110.937 181.423,110.937 181.187 C 110.937 180.913,110.437 180.838,109.562 180.980 C 108.615 181.134,108.268 181.070,108.451 180.775 C 108.637 180.474,108.168 180.421,106.877 180.598 C 105.547 180.780,105.114 180.727,105.313 180.405 C 105.510 180.086,105.125 180.021,103.965 180.177 C 102.738 180.341,102.258 180.246,102.001 179.787 C 101.787 179.404,101.354 179.260,100.830 179.397 C 100.309 179.533,100.093 179.463,100.250 179.208 C 100.412 178.946,100.064 178.866,99.274 178.981 C 98.599 179.081,98.047 179.002,98.047 178.808 C 98.047 178.614,97.476 178.494,96.777 178.542 C 94.706 178.684,94.069 178.556,94.377 178.059 C 94.565 177.755,94.450 177.682,94.035 177.841 C 93.691 177.973,93.346 177.889,93.268 177.654 C 93.189 177.419,92.316 177.209,91.327 177.188 C 90.337 177.166,89.626 176.989,89.747 176.794 C 89.871 176.593,89.440 176.546,88.748 176.684 C 87.912 176.851,87.343 176.740,86.932 176.329 C 86.603 176.001,86.130 175.858,85.880 176.012 C 85.611 176.178,85.531 176.123,85.683 175.876 C 85.974 175.406,83.261 174.808,81.542 174.962 C 80.874 175.022,80.381 174.836,80.240 174.468 C 80.105 174.115,79.752 173.971,79.362 174.110 C 79.004 174.238,78.849 174.192,79.018 174.006 C 79.393 173.595,76.303 172.631,75.543 172.922 C 75.244 173.037,75.000 172.925,75.000 172.675 C 75.000 172.424,74.824 172.328,74.609 172.461 C 74.395 172.594,74.219 172.497,74.219 172.247 C 74.219 171.996,73.955 171.893,73.633 172.016 C 73.311 172.140,73.047 172.059,73.047 171.836 C 73.047 171.609,72.704 171.541,72.266 171.680 C 71.836 171.816,71.484 171.770,71.484 171.577 C 71.484 171.385,71.089 171.241,70.605 171.258 C 70.055 171.277,69.769 171.089,69.840 170.753 C 69.913 170.412,69.735 170.301,69.352 170.448 C 69.021 170.575,68.750 170.526,68.750 170.338 C 68.750 170.151,68.217 169.812,67.565 169.585 C 66.692 169.281,66.451 169.288,66.652 169.613 C 66.834 169.907,66.697 169.967,66.243 169.793 C 65.868 169.649,65.477 169.531,65.375 169.531 C 65.272 169.531,65.283 169.378,65.399 169.191 C 65.660 168.769,62.590 167.582,61.523 167.692 C 61.094 167.737,60.783 167.564,60.832 167.309 C 60.942 166.740,59.553 166.250,58.928 166.637 C 58.631 166.820,58.579 166.746,58.778 166.425 C 59.000 166.065,58.866 166.001,58.281 166.186 C 57.732 166.360,57.351 166.220,57.072 165.740 C 56.848 165.354,56.659 165.183,56.653 165.360 C 56.646 165.536,56.354 165.394,56.004 165.044 C 55.654 164.695,55.118 164.504,54.812 164.621 C 54.463 164.756,54.359 164.669,54.533 164.387 C 54.721 164.083,54.540 164.010,53.967 164.160 C 53.379 164.314,53.125 164.202,53.125 163.789 C 53.125 163.415,52.902 163.283,52.519 163.430 C 52.139 163.576,52.011 163.503,52.177 163.235 C 52.357 162.944,52.145 162.898,51.514 163.093 C 51.003 163.250,50.718 163.239,50.880 163.069 C 51.041 162.898,50.426 162.333,49.513 161.813 C 48.089 161.002,47.155 160.708,45.582 160.574 C 45.409 160.559,45.370 160.379,45.498 160.173 C 45.625 159.967,45.176 159.513,44.501 159.164 C 43.702 158.751,43.379 158.700,43.576 159.018 C 43.791 159.367,43.682 159.432,43.196 159.246 C 42.821 159.102,42.441 158.984,42.351 158.984 C 42.261 158.984,42.188 158.702,42.188 158.357 C 42.188 157.924,41.979 157.809,41.516 157.987 C 41.146 158.128,40.970 158.119,41.123 157.966 C 41.276 157.812,41.007 157.485,40.525 157.237 C 39.912 156.923,39.562 156.912,39.361 157.203 C 39.193 157.446,39.072 157.318,39.068 156.892 C 39.064 156.398,38.869 156.241,38.456 156.399 C 38.060 156.551,37.947 156.475,38.130 156.179 C 38.318 155.874,38.191 155.810,37.739 155.984 C 37.287 156.157,37.160 156.093,37.348 155.789 C 37.537 155.484,37.410 155.420,36.958 155.593 C 36.560 155.746,36.384 155.694,36.526 155.464 C 36.741 155.117,36.225 154.909,35.449 155.032 C 35.288 155.057,35.156 154.924,35.156 154.735 C 35.156 154.304,32.787 153.294,32.123 153.443 C 31.851 153.503,31.675 153.325,31.732 153.046 C 31.789 152.767,31.530 152.563,31.157 152.593 C 30.783 152.622,30.563 152.507,30.668 152.338 C 30.773 152.168,30.331 151.845,29.687 151.621 C 29.043 151.396,28.516 151.291,28.516 151.388 C 28.516 151.484,28.155 151.202,27.714 150.761 C 27.196 150.243,26.644 150.046,26.150 150.202 C 25.652 150.360,25.305 150.233,25.152 149.834 C 25.024 149.498,24.761 149.320,24.568 149.439 C 24.376 149.558,24.219 149.461,24.219 149.223 C 24.219 148.732,21.844 147.629,21.391 147.910 C 21.227 148.010,21.094 147.888,21.094 147.638 C 21.094 147.386,20.822 147.286,20.488 147.415 C 20.095 147.565,19.979 147.490,20.158 147.200 C 20.346 146.895,20.165 146.822,19.592 146.972 C 19.128 147.094,18.847 147.033,18.968 146.839 C 19.219 146.432,19.329 146.445,14.554 146.324 C 10.788 146.228,8.749 147.109,9.590 148.469 C 9.768 148.758,9.725 148.849,9.480 148.698 C 9.114 148.471,8.446 149.759,8.552 150.488 C 8.575 150.649,8.399 150.781,8.161 150.781 C 7.924 150.781,7.834 151.054,7.962 151.387 C 8.089 151.721,8.039 151.898,7.850 151.781 C 7.417 151.513,6.956 153.255,7.253 154.031 C 7.375 154.348,7.135 154.933,6.719 155.331 C 5.894 156.121,4.866 159.821,5.217 160.735 C 5.337 161.049,5.180 161.561,4.867 161.874 C 4.541 162.200,4.410 162.731,4.560 163.121 C 4.751 163.620,4.683 163.715,4.302 163.480 C 3.894 163.228,3.834 163.464,4.017 164.596 C 4.175 165.565,4.115 165.949,3.834 165.776 C 3.558 165.605,3.474 165.998,3.584 166.939 C 3.675 167.720,3.641 168.359,3.508 168.359 C 3.376 168.359,3.315 168.970,3.374 169.716 C 3.440 170.551,3.245 171.309,2.867 171.687 C 2.453 172.101,2.328 172.676,2.484 173.455 C 2.628 174.177,2.553 174.609,2.283 174.609 C 2.003 174.609,1.921 175.223,2.049 176.360 C 2.157 177.323,2.099 178.020,1.920 177.909 C 1.740 177.798,1.606 179.245,1.621 181.124 C 1.638 183.166,1.486 184.596,1.244 184.677 C 1.009 184.755,0.930 185.379,1.056 186.156 C 1.209 187.099,1.126 187.500,0.776 187.500 C 0.397 187.500,0.332 188.158,0.507 190.234 C 0.633 191.738,0.581 192.969,0.391 192.969 C 0.196 192.969,0.041 202.058,0.035 213.883 C 0.028 227.145,0.161 234.712,0.399 234.565 C 0.632 234.421,0.681 235.216,0.529 236.673 C 0.333 238.548,0.412 239.139,0.924 239.651 C 1.562 240.289,1.764 242.150,1.576 245.653 C 1.519 246.718,1.632 247.269,1.877 247.117 C 2.127 246.963,2.194 247.441,2.060 248.437 C 1.920 249.477,2.001 250.000,2.300 250.000 C 2.587 250.000,2.659 250.361,2.499 250.997 C 2.324 251.693,2.446 252.137,2.903 252.471 C 3.385 252.824,3.566 253.586,3.592 255.370 C 3.610 256.701,3.774 257.699,3.956 257.587 C 4.137 257.475,4.178 257.919,4.047 258.574 C 3.904 259.286,3.971 259.766,4.211 259.766 C 4.433 259.766,4.529 260.093,4.424 260.493 C 4.308 260.935,4.483 261.316,4.870 261.464 C 5.371 261.657,5.449 262.012,5.238 263.137 C 5.034 264.227,5.085 264.495,5.457 264.265 C 5.802 264.052,5.876 264.177,5.712 264.697 C 5.404 265.674,6.028 267.799,6.587 267.676 C 7.024 267.580,7.187 268.482,7.047 270.215 C 7.007 270.698,7.147 271.094,7.357 271.094 C 7.567 271.094,7.647 271.445,7.535 271.875 C 7.423 272.305,7.522 272.656,7.755 272.656 C 7.988 272.656,8.077 272.920,7.954 273.242 C 7.809 273.619,7.962 273.828,8.383 273.828 C 8.859 273.828,8.970 274.040,8.789 274.609 C 8.645 275.063,8.719 275.391,8.965 275.391 C 9.229 275.391,9.292 275.782,9.130 276.425 C 8.936 277.199,8.994 277.384,9.360 277.158 C 9.718 276.936,9.779 277.077,9.586 277.685 C 9.390 278.301,9.488 278.516,9.963 278.516 C 10.387 278.516,10.579 278.812,10.532 279.395 C 10.406 280.950,10.538 281.692,10.901 281.468 C 11.096 281.347,11.167 281.588,11.058 282.002 C 10.938 282.463,11.171 283.020,11.661 283.439 C 12.100 283.816,12.370 284.270,12.259 284.448 C 11.932 284.979,12.522 286.361,12.961 286.090 C 13.222 285.928,13.266 286.151,13.086 286.719 C 12.897 287.313,12.946 287.512,13.235 287.333 C 13.495 287.173,13.579 287.287,13.450 287.625 C 13.332 287.930,13.507 288.284,13.838 288.411 C 14.186 288.545,14.343 288.896,14.209 289.243 C 14.083 289.573,14.168 289.844,14.399 289.844 C 14.630 289.844,14.707 290.136,14.570 290.494 C 14.403 290.928,14.471 291.051,14.773 290.864 C 15.069 290.681,15.145 290.795,14.993 291.191 C 14.865 291.525,14.964 291.797,15.216 291.797 C 15.466 291.797,15.562 291.973,15.430 292.188 C 15.297 292.402,15.374 292.578,15.602 292.578 C 15.829 292.578,16.016 292.941,16.016 293.385 C 16.016 294.505,16.754 295.776,17.233 295.480 C 17.452 295.345,17.577 295.471,17.513 295.762 C 17.355 296.470,18.360 298.828,18.820 298.828 C 19.022 298.828,19.078 299.004,18.945 299.219 C 18.813 299.434,18.868 299.609,19.069 299.609 C 19.269 299.609,19.541 300.148,19.673 300.807 C 19.806 301.473,20.088 301.896,20.308 301.761 C 20.654 301.547,20.729 301.698,20.695 302.543 C 20.669 303.195,21.988 305.078,22.471 305.078 C 22.828 305.078,23.047 305.457,23.047 306.078 C 23.047 306.734,23.202 306.982,23.498 306.799 C 23.796 306.614,23.842 306.693,23.633 307.030 C 23.434 307.353,23.591 307.740,24.061 308.084 C 24.470 308.383,24.744 308.664,24.671 308.708 C 24.333 308.913,25.576 310.938,26.039 310.938 C 26.327 310.938,26.563 311.299,26.563 311.742 C 26.563 312.184,26.718 312.450,26.909 312.332 C 27.100 312.214,27.231 312.422,27.202 312.793 C 27.173 313.164,27.542 313.643,28.024 313.856 C 28.505 314.070,28.880 314.423,28.856 314.642 C 28.751 315.624,28.950 315.974,29.492 315.766 C 29.920 315.602,30.078 315.815,30.078 316.556 C 30.078 317.148,30.404 317.775,30.859 318.059 C 31.289 318.328,31.641 318.765,31.641 319.030 C 31.641 319.296,32.086 319.805,32.629 320.161 C 33.173 320.517,33.524 320.903,33.410 321.017 C 33.097 321.330,34.415 322.656,35.039 322.656 C 35.339 322.656,35.530 322.962,35.466 323.340 C 35.399 323.741,35.565 323.979,35.869 323.916 C 36.153 323.857,36.282 323.978,36.154 324.185 C 36.026 324.392,36.163 324.704,36.458 324.878 C 36.754 325.053,37.199 325.584,37.449 326.060 C 37.752 326.638,38.117 326.842,38.550 326.675 C 39.028 326.492,39.136 326.589,38.961 327.044 C 38.720 327.672,39.750 328.906,40.515 328.906 C 40.742 328.906,40.904 329.212,40.875 329.586 C 40.845 329.959,41.187 330.428,41.634 330.627 C 42.082 330.826,42.610 331.335,42.806 331.759 C 43.003 332.182,43.320 332.461,43.510 332.378 C 43.700 332.295,44.004 332.626,44.184 333.114 C 44.365 333.602,44.816 334.118,45.186 334.260 C 45.556 334.402,46.476 335.189,47.230 336.009 C 47.984 336.829,48.785 337.500,49.011 337.500 C 49.237 337.500,49.645 337.858,49.919 338.296 C 50.192 338.734,50.613 338.971,50.854 338.822 C 51.101 338.670,51.185 338.726,51.046 338.950 C 50.911 339.169,51.177 339.680,51.639 340.085 C 52.100 340.489,52.351 340.603,52.195 340.337 C 52.005 340.010,52.109 339.928,52.517 340.084 C 52.849 340.212,53.039 340.448,52.939 340.609 C 52.658 341.064,54.577 342.693,55.050 342.400 C 55.285 342.255,55.637 342.580,55.850 343.141 C 56.196 344.050,56.658 344.332,57.549 344.177 C 57.726 344.146,57.759 344.301,57.623 344.522 C 57.487 344.742,57.543 344.922,57.748 344.922 C 57.953 344.922,58.680 345.445,59.364 346.084 C 60.048 346.723,60.726 347.229,60.870 347.209 C 61.643 347.103,62.098 347.321,62.012 347.754 C 61.958 348.022,62.178 348.242,62.500 348.242 C 62.822 348.242,63.219 348.568,63.381 348.967 C 63.564 349.413,63.908 349.602,64.281 349.459 C 64.675 349.308,64.787 349.385,64.605 349.680 C 64.418 349.982,64.541 350.050,64.975 349.883 C 65.406 349.718,65.625 349.835,65.625 350.231 C 65.625 350.559,65.782 350.730,65.975 350.611 C 66.167 350.492,66.432 350.676,66.564 351.019 C 66.699 351.373,67.054 351.547,67.381 351.422 C 67.714 351.294,67.920 351.401,67.866 351.674 C 67.809 351.967,68.131 352.098,68.707 352.017 C 69.396 351.920,69.583 352.035,69.422 352.457 C 69.231 352.954,70.126 353.661,71.191 353.853 C 71.353 353.882,71.850 354.271,72.296 354.718 C 72.742 355.164,73.357 355.433,73.663 355.316 C 73.969 355.199,74.219 355.275,74.219 355.487 C 74.219 356.115,76.699 357.431,77.440 357.196 C 77.893 357.052,78.125 357.185,78.125 357.588 C 78.125 358.426,87.285 363.012,88.310 362.686 C 88.855 362.513,89.063 362.634,89.063 363.125 C 89.062 363.497,89.171 363.693,89.304 363.560 C 89.437 363.427,89.801 363.574,90.113 363.886 C 90.426 364.198,91.157 364.453,91.738 364.453 C 92.328 364.453,93.105 364.815,93.497 365.272 C 93.929 365.778,94.486 366.016,94.951 365.895 C 95.426 365.771,95.608 365.853,95.444 366.118 C 95.280 366.384,95.423 366.447,95.834 366.290 C 96.192 366.152,96.484 366.205,96.484 366.406 C 96.484 366.608,96.777 366.660,97.134 366.523 C 97.542 366.366,97.689 366.429,97.527 366.690 C 97.199 367.221,98.237 367.631,99.088 367.304 C 99.560 367.123,99.650 367.196,99.417 367.573 C 99.177 367.962,99.307 368.037,99.939 367.872 C 100.402 367.750,100.781 367.805,100.781 367.993 C 100.781 368.181,101.043 368.234,101.364 368.111 C 101.701 367.982,102.051 368.161,102.196 368.537 C 102.333 368.895,102.693 369.090,103.000 368.972 C 103.347 368.839,103.453 368.926,103.282 369.202 C 103.090 369.513,103.327 369.565,104.076 369.377 C 104.850 369.183,105.065 369.237,104.857 369.573 C 104.651 369.907,104.861 369.963,105.614 369.774 C 106.352 369.589,106.722 369.680,106.877 370.083 C 107.004 370.414,107.355 370.554,107.714 370.417 C 108.156 370.247,108.240 370.327,108.011 370.698 C 107.770 371.087,107.901 371.162,108.533 370.996 C 108.997 370.875,109.290 370.915,109.185 371.086 C 109.079 371.256,109.334 371.485,109.751 371.594 C 110.168 371.703,110.592 371.591,110.693 371.345 C 110.822 371.030,110.885 371.038,110.907 371.374 C 110.925 371.652,111.205 371.748,111.580 371.604 C 111.974 371.453,112.428 371.639,112.754 372.085 C 113.094 372.550,113.770 372.813,114.626 372.813 C 115.362 372.813,115.873 372.962,115.759 373.145 C 115.646 373.328,115.965 373.442,116.468 373.397 C 118.123 373.250,118.809 373.417,118.514 373.895 C 118.324 374.202,118.444 374.270,118.881 374.102 C 119.241 373.964,119.531 374.042,119.531 374.277 C 119.531 374.517,119.949 374.621,120.496 374.516 C 121.027 374.415,121.381 374.461,121.284 374.618 C 121.046 375.002,123.273 375.429,124.019 375.143 C 124.344 375.018,124.609 375.105,124.609 375.337 C 124.609 375.568,124.873 375.656,125.195 375.532 C 125.519 375.408,125.781 375.521,125.781 375.785 C 125.781 376.071,126.096 376.181,126.562 376.059 C 126.992 375.946,127.344 376.036,127.344 376.257 C 127.344 376.498,127.823 376.564,128.535 376.422 C 129.336 376.262,129.641 376.321,129.466 376.604 C 129.297 376.878,129.664 376.992,130.521 376.932 C 133.066 376.753,133.984 376.928,133.984 377.590 C 133.984 378.101,134.257 378.183,135.360 378.004 C 136.306 377.851,136.653 377.915,136.471 378.209 C 136.289 378.505,136.649 378.566,137.635 378.406 C 138.438 378.276,139.063 378.336,139.063 378.545 C 139.063 378.756,139.707 378.812,140.558 378.676 C 141.680 378.497,142.220 378.604,142.720 379.104 C 143.098 379.482,143.720 379.684,144.155 379.571 C 144.577 379.460,144.922 379.552,144.922 379.776 C 144.922 380.023,145.530 380.099,146.484 379.971 C 147.519 379.833,147.962 379.900,147.794 380.170 C 147.626 380.444,148.209 380.515,149.552 380.386 C 150.658 380.280,151.563 380.299,151.564 380.428 C 151.564 380.558,152.625 380.664,153.922 380.664 C 155.517 380.664,156.388 380.840,156.616 381.209 C 156.854 381.595,157.419 381.691,158.554 381.539 C 159.603 381.399,160.071 381.463,159.908 381.727 C 159.743 381.993,160.526 382.074,162.224 381.966 C 163.713 381.871,164.698 381.952,164.570 382.158 C 164.442 382.365,165.643 382.464,167.429 382.395 C 172.496 382.199,176.243 382.382,175.977 382.813 C 175.844 383.027,175.921 383.203,176.149 383.203 C 176.376 383.203,176.563 383.038,176.563 382.837 C 176.563 382.440,179.365 382.762,179.688 383.196 C 179.998 383.613,212.109 383.495,212.109 383.076 C 212.109 382.875,212.890 382.799,213.851 382.907 C 214.809 383.015,215.644 382.976,215.707 382.820 C 215.769 382.663,217.271 382.439,219.043 382.320 C 220.816 382.202,222.195 382.220,222.107 382.361 C 222.020 382.502,222.811 382.556,223.865 382.482 C 224.919 382.407,225.701 382.218,225.604 382.061 C 225.507 381.903,226.411 381.856,227.613 381.956 C 229.069 382.077,229.715 382.002,229.548 381.731 C 229.382 381.463,229.829 381.396,230.859 381.534 C 231.960 381.682,232.422 381.599,232.422 381.256 C 232.422 380.961,232.730 380.849,233.203 380.973 C 233.633 381.085,233.984 380.998,233.984 380.778 C 233.984 380.558,234.508 380.457,235.156 380.552 C 235.801 380.647,236.328 380.600,236.328 380.449 C 236.328 380.298,237.145 380.266,238.144 380.379 C 239.228 380.501,239.869 380.436,239.734 380.217 C 239.603 380.005,240.093 379.919,240.901 380.013 C 241.934 380.134,242.217 380.052,241.997 379.695 C 241.781 379.345,241.928 379.286,242.530 379.477 C 243.071 379.648,243.589 379.514,244.010 379.092 C 244.448 378.655,245.020 378.516,245.767 378.665 C 246.376 378.787,246.875 378.726,246.875 378.530 C 246.875 378.334,247.518 378.278,248.303 378.406 C 249.395 378.583,249.659 378.521,249.426 378.144 C 249.200 377.778,249.343 377.721,249.980 377.923 C 250.539 378.101,250.999 377.996,251.298 377.623 C 251.781 377.021,254.484 376.334,254.133 376.903 C 254.021 377.083,254.362 377.148,254.890 377.047 C 255.418 376.946,255.774 376.740,255.680 376.589 C 255.587 376.437,256.053 376.393,256.717 376.490 C 257.638 376.625,257.849 376.547,257.609 376.158 C 257.385 375.797,257.473 375.717,257.911 375.886 C 258.275 376.025,258.622 375.879,258.756 375.532 C 258.893 375.174,259.407 374.969,260.058 375.012 C 261.983 375.139,262.941 375.007,262.718 374.646 C 262.597 374.451,262.851 374.384,263.281 374.496 C 263.735 374.615,264.063 374.508,264.063 374.241 C 264.063 373.989,264.238 373.891,264.453 374.023 C 264.668 374.156,264.844 374.068,264.844 373.827 C 264.844 373.586,265.151 373.420,265.527 373.458 C 266.816 373.589,267.624 373.437,267.418 373.103 C 267.304 372.919,267.618 372.847,268.114 372.942 C 268.615 373.038,269.285 372.847,269.618 372.513 C 269.949 372.183,270.320 372.013,270.443 372.135 C 270.565 372.258,270.935 372.090,271.264 371.761 C 271.617 371.407,272.208 371.254,272.710 371.385 C 273.256 371.528,273.468 371.459,273.303 371.192 C 273.143 370.933,273.328 370.850,273.794 370.972 C 274.288 371.101,274.692 370.888,274.982 370.346 C 275.324 369.706,275.648 369.581,276.441 369.780 C 277.202 369.971,277.383 369.912,277.158 369.546 C 276.934 369.184,277.083 369.129,277.734 369.336 C 278.329 369.525,278.528 369.476,278.349 369.187 C 278.183 368.919,278.311 368.846,278.691 368.992 C 279.025 369.120,279.297 369.020,279.297 368.769 C 279.297 368.518,279.454 368.411,279.647 368.529 C 279.839 368.648,280.102 368.471,280.231 368.135 C 280.392 367.715,280.725 367.607,281.297 367.788 C 281.818 367.954,282.038 367.904,281.884 367.656 C 281.737 367.418,281.949 367.341,282.417 367.464 C 282.909 367.592,283.282 367.437,283.435 367.039 C 283.567 366.693,283.833 366.508,284.025 366.627 C 284.218 366.746,284.375 366.646,284.375 366.406 C 284.375 366.166,284.551 366.078,284.766 366.211 C 284.980 366.344,285.156 366.272,285.156 366.051 C 285.156 365.830,285.420 365.751,285.742 365.874 C 286.064 365.998,286.328 365.910,286.328 365.679 C 286.328 365.448,286.590 365.360,286.911 365.482 C 287.243 365.610,287.596 365.438,287.733 365.082 C 287.865 364.739,288.117 364.547,288.293 364.656 C 288.754 364.941,290.640 364.012,290.397 363.619 C 290.285 363.438,290.465 363.394,290.797 363.522 C 291.151 363.658,291.498 363.496,291.639 363.129 C 291.771 362.785,292.031 362.599,292.217 362.714 C 292.631 362.969,294.922 361.829,294.922 361.367 C 294.922 361.184,295.461 360.927,296.120 360.796 C 296.906 360.638,297.220 360.398,297.032 360.094 C 296.840 359.783,296.956 359.713,297.387 359.878 C 297.746 360.016,298.159 359.890,298.330 359.592 C 298.496 359.299,299.072 358.995,299.609 358.915 C 300.146 358.836,300.539 358.547,300.482 358.273 C 300.425 357.999,300.601 357.811,300.873 357.856 C 301.683 357.987,302.749 357.371,302.476 356.930 C 302.332 356.696,302.410 356.635,302.658 356.789 C 303.197 357.122,304.688 356.236,304.688 355.582 C 304.688 355.319,304.912 355.189,305.187 355.294 C 305.462 355.400,306.033 355.205,306.457 354.862 C 306.880 354.520,306.980 354.367,306.678 354.524 C 306.305 354.717,306.224 354.655,306.424 354.331 C 306.586 354.069,306.815 353.951,306.933 354.068 C 307.275 354.411,310.156 352.641,310.156 352.089 C 310.156 351.813,310.402 351.681,310.702 351.796 C 311.003 351.912,311.528 351.605,311.874 351.111 C 312.218 350.619,312.500 350.356,312.500 350.526 C 312.500 350.695,313.029 350.457,313.676 349.997 C 314.324 349.536,314.736 348.970,314.593 348.738 C 314.437 348.485,314.516 348.430,314.790 348.600 C 315.337 348.938,318.462 346.576,318.146 346.064 C 318.026 345.870,318.157 345.798,318.437 345.904 C 318.716 346.009,319.817 345.304,320.882 344.337 C 321.947 343.370,322.958 342.578,323.128 342.578 C 323.298 342.578,323.438 342.208,323.438 341.755 C 323.438 341.203,323.621 341.002,323.995 341.146 C 324.301 341.264,324.785 341.063,325.069 340.699 C 325.543 340.093,325.524 340.087,324.827 340.625 C 324.275 341.051,324.155 341.067,324.387 340.683 C 324.562 340.392,325.299 339.907,326.024 339.603 C 326.769 339.292,327.344 338.771,327.344 338.406 C 327.344 338.051,327.466 337.883,327.615 338.032 C 327.964 338.381,332.813 333.591,332.813 332.898 C 332.813 332.611,332.979 332.479,333.184 332.605 C 333.568 332.843,334.489 331.494,334.164 331.169 C 334.062 331.068,334.362 330.649,334.830 330.238 C 335.298 329.828,335.536 329.739,335.358 330.041 C 335.140 330.411,335.182 330.499,335.487 330.311 C 335.735 330.157,335.938 329.662,335.938 329.209 C 335.938 328.756,336.055 328.503,336.199 328.647 C 336.592 329.040,337.866 327.735,337.647 327.163 C 337.540 326.884,337.826 326.568,338.298 326.445 C 338.778 326.319,339.027 326.040,338.877 325.798 C 338.732 325.563,338.838 325.419,339.113 325.479 C 339.388 325.538,339.621 325.382,339.631 325.133 C 339.640 324.884,340.134 324.299,340.726 323.832 C 341.319 323.366,341.716 322.841,341.608 322.666 C 341.499 322.491,341.662 322.251,341.969 322.133 C 342.276 322.016,342.732 321.536,342.982 321.069 C 343.286 320.500,343.296 320.305,343.012 320.481 C 342.753 320.641,342.672 320.522,342.805 320.176 C 342.925 319.864,343.363 319.519,343.779 319.411 C 344.312 319.271,344.457 319.011,344.271 318.527 C 344.104 318.092,344.159 317.934,344.421 318.096 C 344.648 318.236,345.051 318.089,345.316 317.769 C 345.582 317.449,345.656 317.187,345.481 317.187 C 345.306 317.187,345.487 316.950,345.883 316.661 C 346.280 316.371,346.479 315.932,346.326 315.684 C 346.173 315.437,346.234 315.234,346.461 315.234 C 346.689 315.234,346.834 315.103,346.784 314.941 C 346.733 314.780,347.182 314.164,347.781 313.571 C 348.380 312.978,348.774 312.338,348.656 312.147 C 348.538 311.957,348.723 311.693,349.066 311.561 C 349.433 311.420,349.595 311.073,349.459 310.719 C 349.308 310.325,349.385 310.213,349.680 310.395 C 349.985 310.584,350.049 310.456,349.876 310.005 C 349.723 309.607,349.775 309.431,350.004 309.573 C 350.387 309.809,350.551 309.281,350.411 308.262 C 350.371 307.971,350.517 307.845,350.736 307.980 C 351.164 308.244,351.791 307.306,352.012 306.071 C 352.087 305.651,352.472 304.976,352.868 304.570 C 353.275 304.154,353.503 303.510,353.393 303.088 C 353.286 302.678,353.357 302.441,353.552 302.562 C 353.906 302.780,354.063 302.224,353.926 301.230 C 353.887 300.940,354.027 300.810,354.239 300.941 C 354.614 301.173,355.592 298.868,355.407 298.190 C 355.223 297.517,355.925 296.088,356.320 296.332 C 356.581 296.494,356.625 296.271,356.445 295.703 C 356.237 295.048,356.292 294.902,356.660 295.129 C 357.020 295.352,357.094 295.206,356.934 294.592 C 356.813 294.128,356.868 293.844,357.056 293.961 C 357.245 294.077,357.375 293.526,357.345 292.734 C 357.313 291.883,357.522 291.119,357.857 290.863 C 358.480 290.386,359.474 287.500,359.015 287.500 C 358.513 287.500,359.044 284.979,359.647 284.501 C 360.027 284.201,360.133 283.745,359.955 283.183 C 359.788 282.658,359.831 282.416,360.065 282.561 C 360.289 282.699,360.544 281.871,360.681 280.559 C 361.033 277.178,360.953 253.850,360.590 254.075 C 360.416 254.182,360.360 253.372,360.465 252.273 C 360.607 250.799,360.536 250.351,360.196 250.562 C 359.866 250.765,359.806 250.562,359.985 249.849 C 360.152 249.184,360.027 248.643,359.610 248.226 C 358.982 247.598,358.790 246.469,358.956 244.392 C 359.013 243.683,358.893 243.369,358.629 243.533 C 358.370 243.693,358.303 243.553,358.452 243.166 C 358.591 242.804,358.416 242.339,358.039 242.064 C 357.680 241.801,357.376 241.150,357.363 240.617 C 357.319 238.837,356.971 237.491,356.613 237.712 C 356.418 237.833,356.364 237.658,356.492 237.325 C 356.620 236.991,356.520 236.719,356.269 236.719 C 356.018 236.719,355.922 236.543,356.055 236.328 C 356.187 236.113,356.100 235.938,355.859 235.938 C 355.619 235.938,355.531 235.762,355.664 235.547 C 355.797 235.332,355.736 235.156,355.528 235.156 C 355.321 235.156,355.250 234.777,355.372 234.314 C 355.537 233.682,355.462 233.552,355.073 233.792 C 354.696 234.025,354.623 233.935,354.804 233.463 C 354.941 233.105,354.873 232.813,354.652 232.813 C 354.431 232.812,354.359 232.637,354.492 232.422 C 354.625 232.207,354.441 232.031,354.083 232.031 C 353.665 232.031,353.512 231.822,353.657 231.445 C 353.781 231.123,353.701 230.859,353.480 230.859 C 353.260 230.859,353.189 230.682,353.322 230.465 C 353.680 229.886,353.153 228.517,352.613 228.621 C 352.357 228.671,352.093 228.225,352.024 227.630 C 351.956 227.036,351.738 226.649,351.540 226.771 C 351.343 226.894,351.285 226.722,351.412 226.391 C 351.546 226.041,351.391 225.691,351.041 225.557 C 350.710 225.429,350.325 224.811,350.187 224.183 C 350.049 223.554,349.777 223.139,349.582 223.259 C 349.387 223.380,349.332 223.207,349.459 222.875 C 349.595 222.520,349.433 222.173,349.064 222.032 C 348.719 221.900,348.438 221.541,348.438 221.234 C 348.438 220.928,347.954 220.199,347.363 219.616 C 346.772 219.032,346.289 218.291,346.289 217.969 C 346.289 217.646,346.025 217.375,345.703 217.365 C 345.381 217.355,345.167 217.117,345.229 216.836 C 345.381 216.135,344.536 215.185,344.036 215.494 C 343.800 215.640,343.746 215.557,343.908 215.295 C 344.061 215.047,344.001 214.844,343.773 214.844 C 343.546 214.844,343.397 214.712,343.442 214.551 C 343.608 213.965,342.425 212.583,341.923 212.776 C 341.639 212.885,341.406 212.780,341.406 212.542 C 341.406 211.311,340.718 210.053,340.215 210.364 C 340.011 210.490,339.844 210.340,339.844 210.032 C 339.844 209.723,339.546 209.229,339.183 208.935 C 338.613 208.472,338.568 208.479,338.859 208.984 C 339.074 209.357,338.892 209.303,338.358 208.835 C 337.896 208.430,337.617 207.940,337.737 207.746 C 337.999 207.322,331.653 200.727,331.234 200.987 C 331.073 201.086,330.836 200.894,330.708 200.559 C 330.579 200.224,330.323 200.044,330.138 200.159 C 329.953 200.273,329.380 199.904,328.865 199.339 C 328.351 198.774,328.193 198.462,328.516 198.645 C 329.020 198.931,329.027 198.886,328.569 198.321 C 328.276 197.960,327.901 197.749,327.735 197.851 C 327.568 197.954,327.341 197.689,327.229 197.261 C 327.118 196.834,326.700 196.484,326.301 196.484 C 325.902 196.484,325.401 196.089,325.187 195.605 C 324.972 195.120,324.513 194.773,324.162 194.831 C 323.757 194.898,323.433 194.565,323.270 193.917 C 323.099 193.236,322.825 192.970,322.445 193.116 C 322.130 193.237,321.875 193.113,321.875 192.840 C 321.875 192.169,318.965 189.368,318.623 189.710 C 318.246 190.087,315.820 187.537,315.820 186.762 C 315.820 186.416,315.600 186.133,315.332 186.133 C 315.063 186.133,314.888 186.019,314.941 185.881 C 315.104 185.461,313.592 183.988,313.229 184.212 C 313.043 184.327,312.891 184.137,312.891 183.789 C 312.891 183.411,312.710 183.269,312.440 183.436 C 312.142 183.620,312.096 183.541,312.304 183.204 C 312.493 182.899,312.398 182.522,312.067 182.265 C 311.763 182.029,311.296 181.343,311.029 180.740 C 310.731 180.066,310.368 179.752,310.088 179.925 C 309.781 180.115,309.716 179.990,309.888 179.541 C 310.042 179.141,309.928 178.794,309.602 178.669 C 309.305 178.555,308.948 177.858,308.810 177.121 C 308.671 176.384,308.380 175.781,308.162 175.781 C 307.945 175.781,307.864 175.624,307.983 175.432 C 308.101 175.239,307.939 174.982,307.622 174.860 C 307.209 174.702,307.112 174.302,307.282 173.452 C 307.413 172.800,307.366 172.266,307.178 172.266 C 306.990 172.266,306.836 171.316,306.836 170.154 C 306.836 168.993,306.983 168.134,307.163 168.245 C 307.342 168.356,307.455 168.032,307.412 167.524 C 307.245 165.513,307.413 164.757,307.982 164.975 C 308.364 165.122,308.623 164.820,308.798 164.023 C 308.939 163.382,309.478 162.433,309.996 161.915 C 310.514 161.397,310.938 160.613,310.938 160.174 C 310.938 159.735,311.191 159.375,311.500 159.375 C 312.186 159.375,312.598 158.763,312.654 157.662 C 312.677 157.208,312.959 156.828,313.281 156.818 C 313.604 156.808,313.823 156.589,313.770 156.330 C 313.716 156.071,313.884 155.903,314.142 155.957 C 314.401 156.011,314.622 155.879,314.633 155.664 C 314.644 155.449,315.393 154.570,316.298 153.711 C 317.202 152.852,317.992 151.897,318.053 151.590 C 318.237 150.663,319.628 149.219,320.335 149.219 C 321.055 149.219,322.004 148.306,321.650 147.952 C 321.530 147.832,321.664 147.744,321.947 147.757 C 323.211 147.812,323.856 147.626,323.636 147.270 C 323.499 147.049,323.656 146.983,324.003 147.117 C 324.337 147.245,324.609 147.155,324.609 146.919 C 324.609 146.470,326.668 146.349,332.170 146.473 C 333.963 146.513,335.145 146.392,335.015 146.181 C 334.884 145.970,335.597 145.898,336.732 146.007 C 338.073 146.136,338.672 146.050,338.672 145.730 C 338.672 145.475,338.833 145.366,339.029 145.487 C 339.226 145.609,339.454 145.505,339.537 145.256 C 339.633 144.967,340.638 144.820,342.319 144.849 C 343.766 144.873,344.871 144.765,344.774 144.608 C 344.677 144.450,345.308 144.389,346.178 144.472 C 347.305 144.580,347.679 144.493,347.480 144.171 C 347.282 143.851,347.500 143.794,348.229 143.977 C 348.966 144.162,349.397 144.046,349.745 143.570 C 350.092 143.096,350.903 142.875,352.557 142.804 C 356.516 142.633,356.701 142.601,356.419 142.146 C 356.240 141.855,356.424 141.799,356.982 141.977 C 357.510 142.144,357.813 142.071,357.813 141.778 C 357.813 141.507,358.137 141.400,358.594 141.519 C 359.023 141.632,359.375 141.546,359.375 141.328 C 359.375 141.110,359.627 141.029,359.936 141.147 C 360.244 141.266,360.582 141.153,360.686 140.896 C 360.810 140.592,360.887 140.580,360.907 140.864 C 360.924 141.112,361.354 141.218,361.910 141.112 C 362.444 141.010,362.801 140.796,362.703 140.637 C 362.604 140.478,362.958 140.430,363.488 140.532 C 364.072 140.643,364.453 140.535,364.453 140.257 C 364.453 140.004,364.630 139.907,364.847 140.041 C 365.063 140.175,365.515 140.009,365.852 139.673 C 366.242 139.282,366.805 139.148,367.411 139.300 C 368.009 139.450,368.359 139.370,368.359 139.082 C 368.359 138.831,368.539 138.737,368.760 138.873 C 369.445 139.297,371.484 138.651,371.484 138.009 C 371.484 137.606,371.735 137.474,372.247 137.608 C 372.666 137.718,373.092 137.607,373.193 137.361 C 373.327 137.033,373.384 137.035,373.407 137.371 C 373.443 137.905,376.106 137.312,376.758 136.625 C 377.027 136.342,376.977 136.311,376.600 136.526 C 376.232 136.736,376.143 136.691,376.330 136.388 C 376.483 136.140,377.224 135.938,377.976 135.938 C 378.823 135.938,379.247 135.783,379.092 135.531 C 378.927 135.265,379.209 135.217,379.908 135.393 C 380.658 135.581,380.894 135.529,380.702 135.218 C 380.526 134.933,380.644 134.858,381.034 135.007 C 381.369 135.135,381.641 135.036,381.641 134.784 C 381.641 134.534,381.818 134.438,382.034 134.572 C 382.250 134.706,382.525 134.560,382.645 134.248 C 382.769 133.924,383.172 133.761,383.583 133.868 C 383.996 133.976,384.652 133.708,385.120 133.239 C 385.570 132.790,385.981 132.448,386.035 132.479 C 386.428 132.710,387.849 131.889,387.641 131.552 C 387.487 131.304,387.561 131.242,387.819 131.401 C 388.332 131.718,390.319 130.531,390.038 130.076 C 389.934 129.907,390.120 129.665,390.452 129.538 C 390.854 129.383,390.968 129.467,390.792 129.790 C 390.647 130.056,391.127 129.604,391.858 128.787 C 392.589 127.969,393.534 127.249,393.957 127.187 C 394.380 127.125,394.789 126.740,394.866 126.330 C 395.050 125.350,395.669 124.613,396.220 124.720 C 396.462 124.766,396.722 124.407,396.796 123.920 C 396.870 123.433,397.087 123.132,397.277 123.249 C 397.711 123.518,398.897 121.293,398.520 120.916 C 398.368 120.764,398.573 120.398,398.975 120.104 C 399.400 119.794,399.610 119.315,399.475 118.964 C 399.348 118.631,399.395 118.359,399.581 118.359 C 399.766 118.359,399.930 115.716,399.944 112.486 C 399.961 108.654,399.834 106.697,399.579 106.855 C 399.333 107.006,399.282 106.720,399.441 106.087 C 399.605 105.434,399.533 105.078,399.238 105.078 C 398.987 105.078,398.891 104.902,399.023 104.688 C 399.156 104.473,399.079 104.297,398.851 104.297 C 398.624 104.297,398.458 104.165,398.484 104.004 C 398.607 103.225,398.398 102.713,398.047 102.930 C 397.832 103.062,397.656 102.966,397.656 102.715 C 397.656 102.420,397.301 102.348,396.647 102.512 C 395.921 102.695,395.718 102.635,395.925 102.301 C 396.140 101.953,395.564 101.889,393.614 102.045 C 392.050 102.171,391.016 102.103,391.016 101.874 C 391.016 101.655,389.738 101.526,387.988 101.569 C 382.893 101.694,381.187 101.590,381.445 101.172 C 381.578 100.957,381.501 100.781,381.273 100.781 C 381.046 100.781,380.859 100.941,380.859 101.135 C 380.859 101.330,380.508 101.397,380.078 101.285 C 379.648 101.173,379.297 100.902,379.297 100.684 C 379.297 100.447,378.669 100.372,377.734 100.497 C 376.690 100.637,376.256 100.570,376.427 100.294 C 376.598 100.017,376.148 99.953,375.060 100.099 C 374.168 100.218,373.437 100.201,373.436 100.060 C 373.436 99.920,372.720 99.796,371.847 99.785 C 370.974 99.774,370.125 99.548,369.962 99.283 C 369.787 99.000,369.369 98.915,368.948 99.077 C 368.493 99.251,368.323 99.203,368.483 98.944 C 368.756 98.502,365.424 97.876,363.574 98.021 C 362.857 98.078,362.500 97.917,362.500 97.539 C 362.500 96.917,360.518 96.370,359.575 96.732 C 359.250 96.857,358.984 96.752,358.984 96.500 C 358.984 96.210,358.679 96.138,358.154 96.305 C 357.600 96.480,357.412 96.426,357.589 96.140 C 357.754 95.872,357.627 95.799,357.247 95.945 C 356.913 96.073,356.641 95.996,356.641 95.775 C 356.641 95.284,354.065 94.387,353.556 94.702 C 352.956 95.073,351.092 94.196,351.405 93.689 C 351.597 93.378,351.420 93.306,350.842 93.457 C 350.378 93.578,350.086 93.537,350.192 93.365 C 350.376 93.067,348.564 92.380,347.949 92.514 C 347.788 92.549,347.656 92.384,347.656 92.146 C 347.656 91.897,347.370 91.823,346.985 91.971 C 346.615 92.113,346.439 92.103,346.592 91.949 C 346.972 91.570,343.777 90.172,343.259 90.491 C 343.000 90.652,342.966 90.555,343.168 90.228 C 343.402 89.850,343.308 89.780,342.817 89.968 C 342.430 90.117,342.245 90.067,342.379 89.851 C 342.506 89.645,342.121 89.353,341.524 89.203 C 340.926 89.053,340.193 88.687,339.895 88.388 C 339.597 88.090,339.102 87.942,338.797 88.059 C 338.491 88.176,338.310 88.142,338.394 87.984 C 338.610 87.578,337.231 86.337,336.915 86.653 C 336.772 86.796,336.777 86.427,336.926 85.835 C 337.149 84.945,337.087 84.799,336.567 84.998 C 335.941 85.238,335.734 84.512,335.917 82.715 C 335.955 82.339,335.796 82.031,335.564 82.031 C 335.302 82.031,335.240 81.638,335.401 80.996 C 335.601 80.199,335.543 80.035,335.147 80.279 C 334.775 80.509,334.702 80.417,334.882 79.947 C 335.019 79.589,334.981 79.297,334.796 79.297 C 334.356 79.297,333.838 77.400,333.958 76.226 C 334.012 75.695,333.887 75.405,333.664 75.543 C 333.431 75.687,333.364 75.446,333.496 74.939 C 333.636 74.404,333.567 74.189,333.306 74.351 C 332.822 74.650,332.422 73.770,332.422 72.406 C 332.422 71.774,332.265 71.535,331.971 71.717 C 331.690 71.890,331.626 71.824,331.801 71.541 C 332.218 70.866,331.677 69.531,330.987 69.531 C 330.612 69.531,330.470 69.310,330.610 68.945 C 330.734 68.623,330.670 68.359,330.469 68.359 C 330.267 68.359,330.215 68.067,330.352 67.709 C 330.529 67.247,330.457 67.148,330.103 67.368 C 329.729 67.599,329.674 67.456,329.883 66.797 C 330.058 66.245,330.016 66.008,329.770 66.160 C 329.395 66.392,328.715 65.355,328.844 64.746 C 328.878 64.585,328.719 64.453,328.489 64.453 C 328.254 64.453,328.177 64.122,328.313 63.696 C 328.478 63.174,328.309 62.807,327.768 62.518 C 327.314 62.275,327.074 61.858,327.199 61.532 C 327.321 61.215,326.972 60.556,326.403 60.029 C 325.846 59.512,325.391 58.891,325.391 58.647 C 325.391 58.403,325.220 58.203,325.012 58.203 C 324.804 58.203,324.746 57.911,324.883 57.553 C 325.050 57.119,324.982 56.996,324.680 57.183 C 324.381 57.368,324.310 57.249,324.469 56.833 C 324.633 56.406,324.452 56.136,323.906 55.993 C 323.453 55.874,323.186 55.561,323.295 55.275 C 323.402 54.997,323.152 54.531,322.739 54.240 C 322.325 53.949,321.861 53.313,321.708 52.826 C 321.551 52.330,321.243 52.056,321.005 52.203 C 320.773 52.347,320.690 52.290,320.822 52.077 C 321.160 51.529,319.957 49.932,319.444 50.249 C 319.182 50.411,319.133 50.328,319.317 50.031 C 319.680 49.443,318.026 47.575,317.455 47.928 C 317.218 48.074,317.149 47.928,317.287 47.570 C 317.531 46.934,315.593 44.746,315.110 45.112 C 314.963 45.222,314.921 45.206,315.016 45.076 C 315.343 44.624,312.924 42.121,312.445 42.417 C 312.265 42.528,312.223 42.346,312.351 42.012 C 312.479 41.679,312.388 41.406,312.149 41.406 C 311.909 41.406,311.337 40.973,310.876 40.443 C 310.415 39.913,309.862 39.589,309.646 39.722 C 309.431 39.855,309.372 39.775,309.515 39.543 C 309.828 39.036,304.467 34.156,303.681 34.233 C 303.380 34.263,303.215 34.154,303.315 33.992 C 303.615 33.508,302.044 32.320,301.527 32.639 C 301.223 32.827,301.152 32.770,301.330 32.482 C 301.492 32.220,301.371 32.031,301.041 32.031 C 300.729 32.031,300.366 31.749,300.234 31.405 C 300.092 31.036,299.746 30.873,299.390 31.010 C 299.059 31.137,298.883 31.087,299.000 30.898 C 299.280 30.444,297.356 29.195,296.854 29.505 C 296.640 29.637,296.513 29.513,296.572 29.228 C 296.640 28.901,296.357 28.745,295.801 28.804 C 295.206 28.867,294.922 28.688,294.922 28.251 C 294.922 27.895,294.819 27.707,294.694 27.832 C 294.569 27.957,294.120 27.714,293.697 27.291 C 293.225 26.819,292.648 26.612,292.201 26.754 C 291.718 26.907,291.274 26.701,290.885 26.145 C 290.526 25.634,290.109 25.422,289.815 25.604 C 289.483 25.809,289.432 25.741,289.652 25.385 C 289.883 25.011,289.795 24.935,289.333 25.112 C 288.982 25.247,288.426 25.089,288.097 24.760 C 287.769 24.432,287.500 24.297,287.500 24.461 C 287.500 24.625,287.269 24.442,286.986 24.056 C 286.692 23.654,285.911 23.325,285.160 23.287 C 284.438 23.251,283.775 23.005,283.687 22.741 C 283.599 22.477,283.366 22.360,283.170 22.482 C 282.973 22.603,282.813 22.497,282.813 22.247 C 282.813 21.996,282.541 21.896,282.206 22.024 C 281.816 22.174,281.698 22.099,281.874 21.814 C 282.061 21.511,281.821 21.433,281.113 21.569 C 280.544 21.678,280.078 21.621,280.078 21.442 C 280.078 21.264,279.805 21.223,279.470 21.352 C 279.117 21.487,278.538 21.237,278.088 20.753 C 277.662 20.296,276.925 19.889,276.450 19.849 C 275.113 19.735,273.735 19.642,272.559 19.584 C 271.929 19.553,271.484 19.307,271.484 18.990 C 271.484 18.381,268.264 17.740,267.519 18.201 C 267.226 18.382,267.173 18.308,267.369 17.991 C 267.594 17.626,267.287 17.525,266.160 17.595 C 263.680 17.747,262.050 17.600,262.270 17.244 C 262.383 17.060,262.042 16.993,261.512 17.094 C 260.981 17.196,260.547 17.126,260.547 16.940 C 260.547 16.754,256.064 16.571,250.586 16.533 C 245.107 16.496,240.625 16.607,240.625 16.782 M291.015 66.527 C 291.015 66.701,291.193 66.734,291.409 66.600 C 291.626 66.466,292.088 66.641,292.436 66.990 C 292.784 67.338,293.349 67.516,293.691 67.385 C 294.033 67.253,294.219 67.240,294.104 67.354 C 293.990 67.468,295.157 68.856,296.698 70.437 C 298.779 72.573,299.568 73.682,299.769 74.753 C 299.918 75.545,300.175 76.110,300.340 76.008 C 300.505 75.906,300.564 76.341,300.471 76.974 C 300.366 77.690,300.475 78.125,300.760 78.125 C 301.012 78.125,301.109 78.301,300.977 78.516 C 300.844 78.730,300.921 78.906,301.149 78.906 C 301.883 78.906,301.670 83.885,300.918 84.306 C 300.501 84.539,300.350 84.960,300.491 85.498 C 300.621 85.996,300.553 86.233,300.320 86.089 C 300.092 85.948,299.986 86.259,300.064 86.849 C 300.146 87.478,299.832 88.307,299.218 89.082 C 296.908 92.001,294.410 94.487,293.345 94.928 C 292.714 95.189,292.292 95.557,292.408 95.744 C 292.524 95.931,292.346 95.980,292.012 95.852 C 291.679 95.724,291.406 95.798,291.406 96.015 C 291.406 96.233,291.055 96.319,290.625 96.207 C 290.188 96.093,289.844 96.195,289.844 96.439 C 289.844 96.679,289.316 96.875,288.672 96.875 C 288.027 96.875,287.500 96.679,287.500 96.439 C 287.500 96.195,287.156 96.093,286.719 96.207 C 286.289 96.319,285.938 96.223,285.938 95.992 C 285.938 95.762,285.844 95.666,285.730 95.780 C 285.616 95.894,284.694 95.222,283.680 94.287 C 282.666 93.352,281.660 92.581,281.445 92.573 C 281.230 92.566,280.767 91.993,280.415 91.300 C 280.064 90.606,279.572 90.086,279.323 90.143 C 279.073 90.200,278.898 90.024,278.934 89.752 C 279.070 88.712,278.890 88.245,278.455 88.514 C 278.183 88.682,278.110 88.621,278.272 88.360 C 278.622 87.793,278.139 85.883,277.712 86.146 C 276.666 86.793,276.504 77.563,277.548 76.799 C 277.878 76.558,278.186 75.835,278.234 75.192 C 278.281 74.549,278.584 73.809,278.906 73.548 C 279.229 73.286,279.369 73.066,279.218 73.059 C 279.067 73.052,279.375 72.582,279.901 72.013 C 280.428 71.445,280.859 70.742,280.859 70.451 C 280.859 70.160,281.127 69.922,281.455 69.922 C 281.783 69.922,282.227 69.458,282.442 68.891 C 282.658 68.324,282.940 67.966,283.068 68.094 C 283.372 68.398,285.547 67.276,285.547 66.815 C 285.547 66.351,286.472 66.184,288.964 66.199 C 290.092 66.205,291.015 66.353,291.015 66.527 M202.569 184.725 C 205.169 185.905,205.598 187.266,205.846 195.097 L 206.055 201.717 209.520 202.217 C 222.468 204.082,231.348 209.180,237.980 218.555 C 245.509 229.197,245.607 238.713,238.230 242.926 C 231.044 247.030,224.274 243.551,221.263 234.209 C 218.879 226.809,211.699 219.531,206.783 219.531 L 205.859 219.531 205.859 239.206 L 205.859 258.881 208.301 259.559 C 214.188 261.194,221.948 263.733,225.125 265.064 C 258.394 279.002,254.909 326.288,219.742 338.093 C 216.509 339.178,209.910 340.625,208.192 340.625 C 205.733 340.625,205.861 339.939,205.847 353.264 C 205.828 372.522,204.925 375.474,199.372 374.432 C 195.284 373.665,194.927 372.106,194.924 355.044 L 194.922 341.143 190.859 340.481 C 168.866 336.898,152.063 320.813,151.833 303.125 C 151.710 293.636,162.628 287.838,170.238 293.350 C 172.452 294.954,172.796 295.577,175.422 302.756 C 179.921 315.052,185.588 321.263,193.457 322.524 L 194.922 322.758 194.922 300.731 L 194.922 278.703 190.527 277.367 C 164.903 269.577,155.621 259.475,155.689 239.453 C 155.759 218.777,168.258 205.255,189.997 202.335 C 195.473 201.600,194.838 202.556,194.987 194.825 C 195.174 185.156,197.295 182.330,202.569 184.725 M189.770 220.462 C 180.186 224.646,177.615 228.120,177.594 236.914 C 177.579 243.017,178.375 245.263,181.711 248.534 C 183.941 250.720,190.899 254.598,193.848 255.298 L 194.922 255.553 194.922 237.347 L 194.922 219.141 193.848 219.145 C 193.257 219.148,191.422 219.740,189.770 220.462 M205.859 302.930 C 205.859 314.424,205.995 323.828,206.160 323.828 C 209.022 323.828,216.606 320.329,219.629 317.613 C 228.142 309.967,228.601 295.465,220.537 288.985 C 217.259 286.351,208.369 282.031,206.227 282.031 C 206.002 282.031,205.859 290.141,205.859 302.930 " stroke="none" fill="#ffffff" fill-rule="evenodd"></path><path id="path1" d="M250.684 16.694 C 251.812 16.773,253.657 16.773,254.785 16.694 C 255.913 16.615,254.990 16.551,252.734 16.551 C 250.479 16.551,249.556 16.615,250.684 16.694 M238.046 17.122 C 238.236 17.430,240.625 17.269,240.625 16.948 C 240.625 16.865,239.999 16.797,239.235 16.797 C 238.470 16.797,237.935 16.943,238.046 17.122 M261.328 17.124 C 263.024 17.692,265.234 17.936,265.234 17.554 C 265.234 17.352,264.729 17.188,264.111 17.188 C 263.494 17.188,262.395 17.099,261.670 16.992 C 260.588 16.831,260.526 16.855,261.328 17.124 M232.422 17.513 C 232.422 17.691,233.433 17.766,234.668 17.678 C 237.924 17.447,238.088 17.254,235.059 17.218 C 233.608 17.201,232.422 17.334,232.422 17.513 M222.852 19.141 C 222.154 19.440,222.183 19.479,223.121 19.504 C 223.700 19.519,224.281 19.355,224.414 19.141 C 224.702 18.674,223.937 18.674,222.852 19.141 M271.484 19.106 C 271.484 19.446,273.885 19.956,274.186 19.680 C 274.454 19.435,274.092 19.266,272.754 19.011 C 272.056 18.878,271.484 18.921,271.484 19.106 M291.041 26.398 C 291.557 27.019,292.188 27.135,292.188 26.608 C 292.188 26.418,291.826 26.168,291.384 26.053 C 290.725 25.880,290.663 25.942,291.041 26.398 M198.926 27.993 C 198.126 28.316,198.372 28.850,199.219 28.629 C 199.648 28.516,200.000 28.269,200.000 28.079 C 200.000 27.707,199.695 27.683,198.926 27.993 M196.094 29.757 C 195.451 30.027,195.297 30.234,195.644 30.363 C 195.933 30.471,196.455 30.275,196.802 29.928 C 197.523 29.207,197.446 29.188,196.094 29.757 M167.193 66.113 C 167.198 66.824,167.272 66.880,167.578 66.406 C 168.068 65.649,168.068 65.234,167.578 65.234 C 167.363 65.234,167.190 65.630,167.193 66.113 M286.133 66.406 C 285.640 66.618,285.568 66.742,285.938 66.742 C 286.260 66.742,286.875 66.591,287.305 66.406 C 287.797 66.195,287.869 66.071,287.500 66.071 C 287.178 66.071,286.563 66.222,286.133 66.406 M165.516 71.614 C 165.081 72.721,165.151 73.286,165.662 72.776 C 165.897 72.541,166.023 72.022,165.943 71.624 C 165.802 70.924,165.787 70.924,165.516 71.614 M276.889 78.745 C 276.811 79.730,276.881 80.620,277.045 80.721 C 277.209 80.822,277.344 80.016,277.344 78.929 C 277.344 76.464,277.079 76.357,276.889 78.745 M334.098 78.110 C 334.339 78.746,334.595 79.207,334.669 79.133 C 334.913 78.889,334.297 76.953,333.976 76.953 C 333.803 76.953,333.858 77.474,334.098 78.110 M163.667 79.199 C 163.664 79.790,163.550 80.713,163.414 81.250 C 163.277 81.787,163.314 82.090,163.495 81.922 C 163.676 81.755,163.867 81.315,163.919 80.946 C 163.971 80.576,164.108 79.790,164.223 79.199 C 164.339 78.608,164.262 78.125,164.053 78.125 C 163.843 78.125,163.669 78.608,163.667 79.199 M301.167 81.525 C 301.062 83.073,301.117 84.198,301.290 84.025 C 301.462 83.851,301.548 82.585,301.481 81.210 L 301.358 78.711 301.167 81.525 M276.788 83.105 C 276.938 84.126,277.218 85.313,277.409 85.742 C 277.703 86.402,277.725 86.372,277.555 85.547 C 277.445 85.010,277.352 83.823,277.349 82.910 C 277.346 81.997,277.157 81.250,276.929 81.250 C 276.657 81.250,276.608 81.886,276.788 83.105 M335.842 84.180 C 335.945 84.717,336.203 85.156,336.415 85.156 C 336.628 85.156,336.696 84.878,336.565 84.538 C 336.435 84.199,336.328 83.759,336.328 83.562 C 336.328 83.365,336.177 83.203,335.992 83.203 C 335.807 83.203,335.739 83.643,335.842 84.180 M163.050 91.797 C 163.050 95.342,163.109 96.792,163.181 95.020 C 163.254 93.247,163.254 90.347,163.181 88.574 C 163.109 86.802,163.050 88.252,163.050 91.797 M351.367 94.039 C 351.971 94.664,353.516 95.037,353.516 94.558 C 353.516 94.328,353.266 94.141,352.962 94.141 C 352.657 94.141,352.086 94.027,351.692 93.888 C 351.204 93.715,351.101 93.764,351.367 94.039 M287.500 96.484 C 287.500 96.699,288.027 96.875,288.672 96.875 C 289.316 96.875,289.844 96.699,289.844 96.484 C 289.844 96.270,289.316 96.094,288.672 96.094 C 288.027 96.094,287.500 96.270,287.500 96.484 M362.500 97.710 C 362.500 97.895,362.939 98.047,363.477 98.047 C 364.014 98.047,364.453 97.979,364.453 97.897 C 364.453 97.815,364.014 97.663,363.477 97.561 C 362.939 97.458,362.500 97.525,362.500 97.710 M370.508 99.609 C 370.938 99.794,371.729 99.940,372.266 99.934 L 373.242 99.922 372.266 99.609 C 371.729 99.437,370.938 99.291,370.508 99.285 L 369.727 99.274 370.508 99.609 M381.445 101.366 C 382.453 101.707,385.547 101.819,385.547 101.515 C 385.547 101.326,384.536 101.186,383.301 101.203 C 382.065 101.220,381.230 101.293,381.445 101.366 M391.016 101.953 C 391.016 102.168,391.279 102.344,391.602 102.344 C 391.924 102.344,392.188 102.168,392.188 101.953 C 392.188 101.738,391.924 101.563,391.602 101.563 C 391.279 101.563,391.016 101.738,391.016 101.953 M163.417 106.055 C 163.552 106.914,163.665 108.276,163.668 109.082 C 163.670 109.888,163.851 110.547,164.070 110.547 C 164.289 110.547,164.385 110.151,164.284 109.668 C 164.182 109.185,164.010 107.931,163.900 106.883 C 163.791 105.835,163.582 104.868,163.436 104.735 C 163.290 104.601,163.282 105.195,163.417 106.055 M165.631 120.215 C 165.628 120.698,165.801 121.094,166.016 121.094 C 166.505 121.094,166.505 120.679,166.016 119.922 C 165.709 119.448,165.636 119.504,165.631 120.215 M167.046 124.805 C 167.333 126.142,167.484 126.396,167.804 126.076 C 167.928 125.952,167.752 125.351,167.412 124.742 L 166.794 123.633 167.046 124.805 M395.313 125.195 C 395.036 125.528,394.898 125.888,395.006 125.995 C 395.113 126.103,395.427 125.919,395.703 125.586 C 395.979 125.253,396.117 124.893,396.010 124.786 C 395.902 124.678,395.589 124.863,395.313 125.195 M392.914 127.701 C 392.407 128.112,392.080 128.517,392.188 128.601 C 392.295 128.685,392.806 128.348,393.324 127.853 C 394.463 126.763,394.194 126.663,392.914 127.701 M366.016 139.453 C 365.542 139.759,365.598 139.833,366.309 139.838 C 366.792 139.841,367.188 139.668,367.188 139.453 C 367.188 138.964,366.773 138.964,366.016 139.453 M351.172 142.860 C 350.635 142.956,350.020 143.222,349.805 143.450 C 349.534 143.738,349.633 143.787,350.130 143.612 C 350.523 143.473,351.270 143.359,351.790 143.359 C 352.309 143.359,352.734 143.184,352.734 142.969 C 352.734 142.754,352.603 142.602,352.441 142.631 C 352.280 142.661,351.709 142.763,351.172 142.860 M340.430 144.922 C 339.263 145.219,339.265 145.220,340.723 145.266 C 341.528 145.292,342.188 145.137,342.188 144.922 C 342.188 144.491,342.121 144.491,340.430 144.922 M12.245 146.002 C 11.997 146.160,13.052 146.309,14.589 146.333 C 16.406 146.362,17.042 146.273,16.406 146.079 C 15.115 145.685,12.810 145.642,12.245 146.002 M328.516 146.484 C 327.720 146.739,327.882 146.804,329.395 146.836 C 330.415 146.857,331.250 146.699,331.250 146.484 C 331.250 146.032,329.927 146.032,328.516 146.484 M325.298 146.761 C 325.783 146.854,326.487 146.851,326.860 146.753 C 327.233 146.655,326.836 146.579,325.977 146.583 C 325.117 146.587,324.812 146.667,325.298 146.761 M318.823 150.195 C 318.356 150.732,318.117 151.172,318.292 151.172 C 318.466 151.172,318.991 150.732,319.458 150.195 C 319.925 149.658,320.164 149.219,319.990 149.219 C 319.815 149.219,319.290 149.658,318.823 150.195 M6.647 154.785 C 6.651 155.496,6.725 155.552,7.031 155.078 C 7.521 154.321,7.521 153.906,7.031 153.906 C 6.816 153.906,6.643 154.302,6.647 154.785 M42.188 158.538 C 42.188 158.940,43.371 159.494,43.644 159.221 C 43.739 159.125,43.450 158.851,43.002 158.612 C 42.554 158.372,42.188 158.339,42.188 158.538 M307.326 165.820 C 307.224 166.357,307.291 166.797,307.476 166.797 C 307.661 166.797,307.813 166.635,307.813 166.438 C 307.813 166.241,307.919 165.801,308.050 165.462 C 308.180 165.122,308.113 164.844,307.900 164.844 C 307.687 164.844,307.429 165.283,307.326 165.820 M2.740 171.191 C 2.745 171.902,2.819 171.958,3.125 171.484 C 3.614 170.727,3.614 170.313,3.125 170.313 C 2.910 170.313,2.737 170.708,2.740 171.191 M69.727 171.094 C 69.859 171.309,70.232 171.484,70.554 171.484 C 70.876 171.484,71.031 171.309,70.898 171.094 C 70.766 170.879,70.393 170.703,70.071 170.703 C 69.749 170.703,69.594 170.879,69.727 171.094 M80.210 174.507 C 80.347 174.729,80.994 174.988,81.648 175.084 C 83.088 175.296,82.676 174.776,81.094 174.385 C 80.352 174.201,80.047 174.244,80.210 174.507 M87.109 176.563 C 87.867 177.052,88.281 177.052,88.281 176.563 C 88.281 176.348,87.886 176.175,87.402 176.178 C 86.692 176.183,86.636 176.256,87.109 176.563 M94.727 178.516 C 95.794 178.974,96.094 178.974,96.094 178.516 C 96.094 178.301,95.610 178.137,95.020 178.152 C 94.068 178.177,94.034 178.218,94.727 178.516 M1.172 183.073 C 1.172 184.076,1.236 184.823,1.313 184.733 C 1.656 184.340,1.844 181.250,1.525 181.250 C 1.331 181.250,1.172 182.070,1.172 183.073 M122.754 183.082 C 123.130 183.180,123.745 183.180,124.121 183.082 C 124.497 182.984,124.189 182.903,123.438 182.903 C 122.686 182.903,122.378 182.984,122.754 183.082 M127.734 183.614 C 128.701 183.786,130.547 183.914,131.836 183.898 L 134.180 183.870 131.836 183.579 C 130.547 183.419,128.701 183.291,127.734 183.294 L 125.977 183.301 127.734 183.614 M150.000 183.594 L 147.852 183.857 150.195 183.886 C 151.484 183.903,153.418 183.779,154.492 183.612 L 156.445 183.308 154.297 183.319 C 153.115 183.325,151.182 183.449,150.000 183.594 M140.039 183.984 C 140.172 184.199,140.622 184.375,141.039 184.375 C 141.456 184.375,141.797 184.199,141.797 183.984 C 141.797 183.770,141.347 183.594,140.797 183.594 C 140.230 183.594,139.902 183.763,140.039 183.984 M315.629 187.012 C 315.635 187.422,318.332 190.001,318.539 189.794 C 318.709 189.625,316.117 186.719,315.796 186.719 C 315.702 186.719,315.627 186.851,315.629 187.012 M323.438 194.437 C 323.438 194.600,323.793 194.956,324.228 195.227 C 324.960 195.685,324.982 195.664,324.524 194.931 C 324.033 194.144,323.438 193.873,323.438 194.437 M328.875 199.360 C 329.395 199.925,329.896 200.312,329.989 200.220 C 330.269 199.939,329.693 199.249,328.787 198.777 C 327.970 198.352,327.974 198.379,328.875 199.360 M338.086 208.594 C 338.475 209.023,338.860 209.375,338.941 209.375 C 339.023 209.375,338.902 209.023,338.672 208.594 C 338.442 208.164,338.057 207.813,337.816 207.813 C 337.576 207.813,337.697 208.164,338.086 208.594 M341.252 212.272 C 341.383 212.612,341.661 212.891,341.871 212.891 C 342.385 212.891,342.063 212.003,341.479 211.808 C 341.194 211.713,341.106 211.892,341.252 212.272 M0.947 240.820 C 1.066 241.680,1.165 242.964,1.168 243.675 C 1.170 244.386,1.322 244.875,1.506 244.761 C 1.920 244.505,1.600 240.644,1.098 239.844 C 0.849 239.447,0.800 239.763,0.947 240.820 M357.310 241.022 C 357.612 242.177,358.122 242.329,357.906 241.199 C 357.804 240.669,357.583 240.234,357.413 240.234 C 357.243 240.234,357.197 240.589,357.310 241.022 M358.853 246.191 C 359.189 247.979,359.884 249.028,359.596 247.314 C 359.475 246.589,359.375 245.754,359.375 245.459 C 359.375 245.164,359.204 244.922,358.994 244.922 C 358.776 244.922,358.715 245.464,358.853 246.191 M2.878 253.467 C 3.014 254.192,3.125 255.115,3.125 255.518 C 3.125 255.920,3.284 256.250,3.478 256.250 C 3.933 256.250,3.542 253.054,3.024 252.539 C 2.761 252.277,2.713 252.583,2.878 253.467 M360.742 267.578 C 360.742 272.949,360.874 277.344,361.035 277.344 C 361.196 277.344,361.328 272.949,361.328 267.578 C 361.328 262.207,361.196 257.813,361.035 257.813 C 360.874 257.813,360.742 262.207,360.742 267.578 M4.688 262.086 C 4.688 262.529,4.863 262.891,5.078 262.891 C 5.293 262.891,5.469 262.637,5.469 262.328 C 5.469 262.018,5.293 261.656,5.078 261.523 C 4.863 261.391,4.688 261.644,4.688 262.086 M6.641 268.555 C 6.641 269.092,6.792 269.531,6.977 269.531 C 7.162 269.531,7.230 269.092,7.127 268.555 C 7.024 268.018,6.873 267.578,6.790 267.578 C 6.708 267.578,6.641 268.018,6.641 268.555 M9.772 278.809 C 9.789 279.665,10.535 280.233,10.541 279.395 C 10.544 278.911,10.371 278.516,10.156 278.516 C 9.941 278.516,9.768 278.647,9.772 278.809 M359.221 284.807 C 358.848 285.980,358.717 287.500,358.987 287.500 C 359.309 287.500,359.838 284.707,359.567 284.437 C 359.472 284.342,359.316 284.508,359.221 284.807 M357.566 291.253 C 357.421 291.659,357.230 292.124,357.143 292.285 C 357.056 292.446,357.151 292.578,357.353 292.578 C 357.743 292.578,358.292 290.974,358.002 290.684 C 357.908 290.590,357.712 290.846,357.566 291.253 M355.541 297.069 C 355.295 297.607,355.246 298.047,355.432 298.047 C 355.756 298.047,356.340 296.444,356.103 296.207 C 356.039 296.143,355.786 296.531,355.541 297.069 M38.281 326.859 C 38.281 327.022,38.637 327.378,39.071 327.649 C 39.804 328.107,39.826 328.085,39.368 327.353 C 38.876 326.565,38.281 326.295,38.281 326.859 M334.570 330.469 C 334.181 330.898,334.060 331.250,334.301 331.250 C 334.541 331.250,334.926 330.898,335.156 330.469 C 335.386 330.039,335.508 329.688,335.426 329.688 C 335.344 329.688,334.959 330.039,334.570 330.469 M324.760 340.307 C 324.140 340.777,323.560 341.216,323.470 341.284 C 323.381 341.351,323.400 341.499,323.514 341.613 C 323.628 341.727,324.291 341.287,324.988 340.636 C 326.471 339.251,326.362 339.093,324.760 340.307 M116.797 373.438 C 116.797 373.652,117.280 373.816,117.871 373.801 C 118.823 373.776,118.856 373.735,118.164 373.438 C 117.097 372.979,116.797 372.979,116.797 373.438 M258.789 375.391 C 258.501 375.857,259.266 375.857,260.352 375.391 C 261.049 375.091,261.020 375.052,260.082 375.027 C 259.504 375.012,258.922 375.176,258.789 375.391 M131.250 376.869 C 131.250 377.083,131.865 377.330,132.617 377.418 C 133.369 377.506,133.984 377.437,133.984 377.265 C 133.984 377.094,133.647 376.953,133.235 376.953 C 132.823 376.953,132.208 376.846,131.868 376.716 C 131.528 376.586,131.250 376.654,131.250 376.869 M252.734 376.844 C 251.185 377.122,251.028 377.594,252.543 377.417 C 253.297 377.329,254.010 377.101,254.128 376.910 C 254.246 376.719,254.201 376.586,254.027 376.616 C 253.853 376.645,253.271 376.748,252.734 376.844 M140.820 378.906 C 141.977 379.403,143.347 379.403,142.578 378.906 C 142.256 378.698,141.553 378.537,141.016 378.549 C 140.121 378.569,140.105 378.599,140.820 378.906 M244.141 378.906 C 243.364 379.408,244.340 379.408,245.508 378.906 L 246.289 378.571 245.508 378.549 C 245.078 378.537,244.463 378.698,244.141 378.906 M151.986 380.610 C 152.075 380.687,153.203 380.854,154.492 380.981 C 155.981 381.127,156.551 381.085,156.055 380.867 C 155.316 380.542,151.640 380.310,151.986 380.610 M168.750 382.447 C 168.750 382.649,170.444 382.813,172.526 382.813 C 174.603 382.813,176.229 382.749,176.139 382.671 C 175.742 382.324,168.750 382.113,168.750 382.447 M218.164 382.422 L 215.430 382.675 218.629 382.744 C 220.420 382.782,221.935 382.640,222.070 382.422 C 222.203 382.207,221.994 382.062,221.605 382.100 C 221.216 382.138,219.668 382.283,218.164 382.422 M176.563 382.837 C 176.563 383.038,177.295 383.203,178.190 383.203 C 180.118 383.203,180.056 383.010,178.027 382.697 C 177.216 382.572,176.563 382.634,176.563 382.837 M212.798 383.089 C 213.283 383.182,213.987 383.179,214.360 383.081 C 214.733 382.983,214.336 382.907,213.477 382.911 C 212.617 382.915,212.312 382.995,212.798 383.089 M192.871 383.494 C 194.644 383.566,197.544 383.566,199.316 383.494 C 201.089 383.421,199.639 383.362,196.094 383.362 C 192.549 383.362,191.099 383.421,192.871 383.494 " stroke="none" fill="#ffffff" fill-rule="evenodd"></path></g></svg>